<svg width="122" height="40" viewBox="0 0 122 40" fill="none" xmlns="http://www.w3.org/2000/svg">
<rect width="121.755" height="40" rx="20" fill="#14172B"/>
<circle cx="26.0049" cy="20" r="11" fill="black"/>
<path d="M21.8237 22.606C21.8999 22.5298 22.0047 22.4853 22.1159 22.4853H32.1969C32.3811 22.4853 32.4732 22.7076 32.343 22.8378L30.3516 24.8293C30.2753 24.9055 30.1705 24.95 30.0594 24.95H19.9783C19.7941 24.95 19.702 24.7276 19.8322 24.5974L21.8237 22.606Z" fill="url(#paint0_linear_8702_153)"/>
<path d="M21.8238 15.1707C21.9032 15.0945 22.008 15.05 22.116 15.05H32.197C32.3812 15.05 32.4733 15.2723 32.3431 15.4025L30.3517 17.394C30.2755 17.4702 30.1707 17.5147 30.0595 17.5147H19.9785C19.7942 17.5147 19.7021 17.2923 19.8323 17.1621L21.8238 15.1707Z" fill="url(#paint1_linear_8702_153)"/>
<path d="M30.3516 18.8645C30.2753 18.7883 30.1705 18.7438 30.0594 18.7438H19.9783C19.7941 18.7438 19.702 18.9662 19.8322 19.0964L21.8237 21.0878C21.8999 21.164 22.0047 21.2085 22.1159 21.2085H32.1969C32.3811 21.2085 32.4732 20.9862 32.343 20.856L30.3516 18.8645Z" fill="url(#paint2_linear_8702_153)"/>
<circle cx="60.8774" cy="20" r="11" fill="#EDF0F4"/>
<path d="M60.8473 13.4L60.7598 13.6973V22.3216L60.8473 22.4089L64.8505 20.0425L60.8473 13.4Z" fill="#343434"/>
<path d="M60.8473 13.4L56.8439 20.0425L60.8473 22.4089V18.2229V13.4Z" fill="#8C8C8C"/>
<path d="M60.8474 23.1668L60.7981 23.227V26.2991L60.8474 26.443L64.8531 20.8017L60.8474 23.1668Z" fill="#3C3C3B"/>
<path d="M60.8472 26.443V23.1668L56.8439 20.8017L60.8472 26.443Z" fill="#8C8C8C"/>
<path d="M60.8473 22.4089L64.8505 20.0426L60.8473 18.2229V22.4089Z" fill="#141414"/>
<path d="M56.8439 20.0426L60.8472 22.4089V18.2229L56.8439 20.0426Z" fill="#393939"/>
<path d="M106.676 22.661C105.207 28.5539 99.2381 32.1402 93.3445 30.6707C87.4534 29.2015 83.867 23.2326 85.3368 17.3402C86.8053 11.4466 92.7739 7.86003 98.6657 9.32916C104.559 10.7983 108.145 16.7679 106.676 22.6611L106.676 22.661H106.676Z" fill="#F3BA2F"/>
<path fill-rule="evenodd" clip-rule="evenodd" d="M96.0074 15.9814L93.159 18.8297L93.159 18.8296L91.5018 17.1723L96.0074 12.6667L100.514 17.1736L98.8571 18.831L96.0074 15.9814ZM90.3313 18.3424L88.6739 20L90.3312 21.6571L91.9886 19.9997L90.3313 18.3424ZM93.1588 21.1705L96.0072 24.0187L98.8569 21.1691L100.515 22.8256L100.514 22.8265L96.0072 27.3334L91.5016 22.8278L91.4993 22.8254L93.1588 21.1705ZM101.683 18.3434L100.026 20.0007L101.683 21.658L103.341 20.0006L101.683 18.3434Z" fill="white"/>
<path d="M97.6884 19.9991H97.6891L96.0074 18.3174L94.7645 19.56V19.56L94.6217 19.7029L94.3272 19.9974L94.3248 19.9997L94.3272 20.0021L96.0074 21.6826L97.6892 20.0009L97.69 19.9999L97.6885 19.9991" fill="white"/>
<defs>
<linearGradient id="paint0_linear_8702_153" x1="-3.01366" y1="13.1797" x2="-3.28188" y2="26.6766" gradientUnits="userSpaceOnUse">
<stop stop-color="#00FFA3"/>
<stop offset="1" stop-color="#DC1FFF"/>
</linearGradient>
<linearGradient id="paint1_linear_8702_153" x1="-6.06421" y1="11.587" x2="-6.33243" y2="25.0839" gradientUnits="userSpaceOnUse">
<stop stop-color="#00FFA3"/>
<stop offset="1" stop-color="#DC1FFF"/>
</linearGradient>
<linearGradient id="paint2_linear_8702_153" x1="-4.54871" y1="12.3783" x2="-4.81694" y2="25.8752" gradientUnits="userSpaceOnUse">
<stop stop-color="#00FFA3"/>
<stop offset="1" stop-color="#DC1FFF"/>
</linearGradient>
</defs>
</svg>
