<svg width="92" height="23" viewBox="0 0 92 23" fill="none" xmlns="http://www.w3.org/2000/svg">
<circle cx="11" cy="11" r="11" fill="black"/>
<path d="M6.81879 13.606C6.89502 13.5298 6.99983 13.4853 7.111 13.4853H17.192C17.3763 13.4853 17.4684 13.7076 17.3381 13.8378L15.3467 15.8293C15.2705 15.9055 15.1657 15.95 15.0545 15.95H4.97346C4.78925 15.95 4.69714 15.7276 4.82736 15.5974L6.81879 13.606Z" fill="url(#paint0_linear_28_830)"/>
<path d="M6.81891 6.17068C6.89831 6.09445 7.00312 6.04999 7.11111 6.04999H17.1922C17.3764 6.04999 17.4685 6.27232 17.3383 6.40254L15.3468 8.39397C15.2706 8.4702 15.1658 8.51467 15.0546 8.51467H4.97358C4.78936 8.51467 4.69725 8.29234 4.82747 8.16212L6.81891 6.17068Z" fill="url(#paint1_linear_28_830)"/>
<path d="M15.3467 9.86453C15.2705 9.7883 15.1657 9.74384 15.0545 9.74384H4.97346C4.78925 9.74384 4.69714 9.96616 4.82736 10.0964L6.81879 12.0878C6.89502 12.164 6.99983 12.2085 7.111 12.2085H17.192C17.3763 12.2085 17.4684 11.9862 17.3381 11.856L15.3467 9.86453Z" fill="url(#paint2_linear_28_830)"/>
<path d="M56.8711 11.0804C56.8711 17.1544 51.9465 22.0791 45.8698 22.08C39.7976 22.08 34.8729 17.1544 34.8738 11.0795C34.872 5.00463 39.7967 0.0799561 45.8716 0.0799561C51.9465 0.0799561 56.8711 5.00551 56.8711 11.0804V11.0804Z" fill="#EAB300"/>
<path fill-rule="evenodd" clip-rule="evenodd" d="M50.1995 8.38577C50.0578 6.91259 48.7861 6.41889 47.1792 6.27808V4.23376H45.9357V6.22352C45.6092 6.22352 45.2748 6.22968 44.943 6.23672V4.23376H43.6995L43.6986 6.27632L43.6853 6.27659C43.4206 6.28178 43.1602 6.28689 42.9066 6.28689V6.28073L41.1914 6.27984V7.6087C41.1914 7.6087 42.1102 7.5911 42.0943 7.60782C42.5986 7.60782 42.7623 7.89999 42.8098 8.15256V10.4811C42.845 10.4811 42.8899 10.4829 42.9409 10.4899H42.8098L42.8089 13.7522C42.7869 13.9106 42.6936 14.1632 42.3416 14.1641C42.3575 14.1782 41.4378 14.1641 41.4378 14.1641L41.1905 15.6496H42.8098C42.9924 15.6496 43.1733 15.6515 43.3523 15.6534H43.3524C43.4684 15.6547 43.5835 15.6559 43.6978 15.6566L43.6986 17.7238H44.9413V15.6786C45.2818 15.6857 45.6118 15.6883 45.9348 15.6883L45.9339 17.7238H47.1774V15.661C49.2684 15.5413 50.7336 15.0142 50.9149 13.05C51.0619 11.4685 50.3183 10.7619 49.1311 10.4767C49.8536 10.1106 50.3051 9.46381 50.1995 8.38577ZM48.4589 12.8053C48.4589 14.2239 46.2279 14.1918 45.2103 14.1771H45.2102C45.1199 14.1758 45.0392 14.1746 44.9705 14.1746V11.4351C45.0564 11.4353 45.1611 11.4329 45.2797 11.4302C46.3257 11.4068 48.4589 11.3589 48.4589 12.8053ZM45.1785 10.1851C46.03 10.1985 47.8799 10.2277 47.8799 8.94106C47.8807 7.6242 46.098 7.67137 45.2265 7.69444C45.1283 7.69703 45.0417 7.69933 44.9705 7.69933V10.1828C45.0298 10.1827 45.0999 10.1838 45.1785 10.1851Z" fill="white"/>
<path d="M42.8118 10.4266H42.9966V10.563H42.8118V10.4266Z" fill="white"/>
<path d="M91.6709 13.661C90.2017 19.5539 84.2332 23.1402 78.3396 21.6707C72.4484 20.2015 68.8621 14.2326 70.3319 8.34017C71.8004 2.44661 77.7689 -1.13997 83.6607 0.329158C89.5539 1.79829 93.14 7.76788 91.6707 13.6611L91.6708 13.661H91.6709Z" fill="#F3BA2F"/>
<path fill-rule="evenodd" clip-rule="evenodd" d="M81.0029 6.98136L78.1545 9.82975L78.1546 9.82963L76.4973 8.1723L81.0029 3.6667L85.51 8.17365L83.8527 9.83098L81.0029 6.98136ZM75.3267 9.34242L73.6693 11L75.3265 12.6571L76.9839 10.9997L75.3267 9.34242ZM78.1544 12.1705L81.0028 15.0187L83.8524 12.1691L85.5107 13.8256L85.5098 13.8265L81.0028 18.3334L76.4972 13.8278L76.4948 13.8254L78.1544 12.1705ZM86.6786 9.34336L85.0213 11.0008L86.6786 12.658L88.3359 11.0006L86.6786 9.34336Z" fill="white"/>
<path d="M82.6834 10.9991H82.6841L81.0025 9.31738L79.7595 10.56V10.56L79.6167 10.7029L79.3222 10.9974L79.3199 10.9997L79.3222 11.0021L81.0025 12.6826L82.6842 11.0009L82.685 10.9999L82.6835 10.9991" fill="white"/>
<defs>
<linearGradient id="paint0_linear_28_830" x1="-18.0185" y1="4.17974" x2="-18.2868" y2="17.6766" gradientUnits="userSpaceOnUse">
<stop stop-color="#00FFA3"/>
<stop offset="1" stop-color="#DC1FFF"/>
</linearGradient>
<linearGradient id="paint1_linear_28_830" x1="-21.0691" y1="2.58705" x2="-21.3373" y2="16.0839" gradientUnits="userSpaceOnUse">
<stop stop-color="#00FFA3"/>
<stop offset="1" stop-color="#DC1FFF"/>
</linearGradient>
<linearGradient id="paint2_linear_28_830" x1="-19.5536" y1="3.37834" x2="-19.8218" y2="16.8752" gradientUnits="userSpaceOnUse">
<stop stop-color="#00FFA3"/>
<stop offset="1" stop-color="#DC1FFF"/>
</linearGradient>
</defs>
</svg>
