<svg width="291" height="351" viewBox="0 0 291 351" fill="none" xmlns="http://www.w3.org/2000/svg">
<g filter="url(#filter0_b_1_1504)">
<path d="" fill-opacity="0.1"/>
<path d="M201.333 23.95L201.333 23.9489C204.044 17.3066 208.666 11.6191 214.614 7.60809C220.562 3.59722 227.567 1.44346 234.741 1.42004H273.74C278.116 1.42004 282.313 3.15843 285.407 6.25278C288.502 9.34714 290.24 13.544 290.24 17.92V334C290.24 338.376 288.502 342.573 285.407 345.667C282.313 348.762 278.116 350.5 273.74 350.5H17C12.6239 350.5 8.42715 348.762 5.3328 345.667C2.23845 342.573 0.5 338.376 0.5 334V17.92C0.5 13.544 2.23845 9.34714 5.3328 6.25278C8.42715 3.15843 12.6239 1.42004 17 1.42004H55.9992C63.173 1.44346 70.1781 3.59722 76.126 7.60809C82.074 11.6191 86.6967 17.3066 89.4072 23.949L89.4076 23.95C93.9657 35.0464 101.72 44.5372 111.684 51.2165C121.649 57.8958 133.374 61.462 145.37 61.462C157.366 61.462 169.091 57.8958 179.056 51.2165C189.021 44.5372 196.775 35.0464 201.333 23.95Z" stroke="url(#paint1_linear_1_1504)"/>
</g>
<defs>
<filter id="filter0_b_1_1504" x="-100" y="-99.08" width="490.74" height="550.08" filterUnits="userSpaceOnUse" color-interpolation-filters="sRGB">
<feFlood flood-opacity="0" result="BackgroundImageFix"/>
<feGaussianBlur in="BackgroundImageFix" stdDeviation="50"/>
<feComposite in2="SourceAlpha" operator="in" result="effect1_backgroundBlur_1_1504"/>
<feBlend mode="normal" in="SourceGraphic" in2="effect1_backgroundBlur_1_1504" result="shape"/>
</filter>
<linearGradient id="paint0_linear_1_1504" x1="145.37" y1="0.920044" x2="145.37" y2="377" gradientUnits="userSpaceOnUse">
<stop stop-color="#626A88"/>
<stop offset="1" stop-color="#2E3149"/>
</linearGradient>
<linearGradient id="paint1_linear_1_1504" x1="145.37" y1="0.920044" x2="145.37" y2="377" gradientUnits="userSpaceOnUse">
<stop stop-color="#ECF0FF" stop-opacity="0.1"/>
<stop offset="1" stop-color="#2E3149" stop-opacity="0"/>
</linearGradient>
</defs>
</svg>
